PathFileType	4	(X/Y/Z)	C:\Users\Basilio\Documents\Thesis Gigler\squatting_fais\c3dfiles\058\SLS_front_pre2\markers_experimental.trc
DataRate	CameraRate	NumFrames	NumMarkers	Units	OrigDataRate	OrigDataStartFrame	OrigNumFrames
200.000000	200.000000	4	61	mm	200.000000	1095	1252
Frame#	Time	FHD			LBHD			RBHD			C7			T10			CLAV			LSHO			LUUPA			LMUPA			LDUPA			LLEP			LMEP			LUL			LRFIN			RSHO			RUPA1			RMUPA			RDUPA			RLEP			RMEP			RRAD			RUL			RUFIN			LASI			RASI			USACR			LSACR			RSACR			LTHI1			LTHI2			LTHI3			LTHI4			LLFC			LMFC			LTIB1			LTIB2			LTIB3			LTIB4			LLMAL			LMMAL			LHEE			LMT1			LMT2			LMT5			RTHI			RTHI2			RTHI3			RTHI4			RLFC			RMFC			RTIB2			RTIB3			RTIB4			RLMAL			RMMAL			RHEE			RMT1			RMT2			RMT5			RTIB1			LRAD			
		X1	Y1	Z1	X2	Y2	Z2	X3	Y3	Z3	X4	Y4	Z4	X5	Y5	Z5	X6	Y6	Z6	X7	Y7	Z7	X8	Y8	Z8	X9	Y9	Z9	X10	Y10	Z10	X11	Y11	Z11	X12	Y12	Z12	X13	Y13	Z13	X14	Y14	Z14	X15	Y15	Z15	X16	Y16	Z16	X17	Y17	Z17	X18	Y18	Z18	X19	Y19	Z19	X20	Y20	Z20	X21	Y21	Z21	X22	Y22	Z22	X23	Y23	Z23	X24	Y24	Z24	X25	Y25	Z25	X26	Y26	Z26	X27	Y27	Z27	X28	Y28	Z28	X29	Y29	Z29	X30	Y30	Z30	X31	Y31	Z31	X32	Y32	Z32	X33	Y33	Z33	X34	Y34	Z34	X35	Y35	Z35	X36	Y36	Z36	X37	Y37	Z37	X38	Y38	Z38	X39	Y39	Z39	X40	Y40	Z40	X41	Y41	Z41	X42	Y42	Z42	X43	Y43	Z43	X44	Y44	Z44	X45	Y45	Z45	X46	Y46	Z46	X47	Y47	Z47	X48	Y48	Z48	X49	Y49	Z49	X50	Y50	Z50	X51	Y51	Z51	X52	Y52	Z52	X53	Y53	Z53	X54	Y54	Z54	X55	Y55	Z55	X56	Y56	Z56	X57	Y57	Z57	X58	Y58	Z58	X59	Y59	Z59	X60	Y60	Z60	X61	Y61	Z61	

1096	5.475000000000001	-275.9934692382813	1817.38623046875	-610.5321044921876	-426.8224182128907	1757.381469726563	-688.4968872070314	-259.7661132812501	1824.705200195313	-752.0877685546876	-434.5358886718751	1600.548095703125	-698.6563720703126	-446.3466186523439	1296.981201171875	-688.1889038085939	-276.0597534179688	1557.834716796875	-683.4869384765626	-284.9624328613282	1608.799682617188	-838.465270996094	-140.5132751464844	1528.0556640625	-959.4445800781252	-111.663330078125	1564.97119140625	-939.6706542968752	-70.67676544189455	1527.474731445313	-961.5600585937502	7.3087215423584	1528.31884765625	-953.3941040039065	11.32610034942627	1471.383666992188	-921.4671020507815	276.7724609375001	1562.159545898438	-912.6370239257815	369.1839599609376	1558.048095703125	-830.4846191406252	-303.8373718261719	1606.509765625	-528.5552368164064	-151.0238647460938	1512.240356445313	-417.0093688964845	-126.2584991455078	1550.56689453125	-438.3148803710939	-81.50228881835939	1519.312377929688	-415.9418945312501	-13.54968452453614	1509.362060546875	-420.597625732422	-5.073348045349122	1453.17333984375	-473.1522216796876	253.5396118164063	1543.485473632813	-507.6516113281251	255.4873962402344	1554.828735351563	-426.1365051269532	349.1007690429688	1566.838623046875	-493.7892150878907	-282.6884155273438	1108.215209960938	-841.5056762695315	-264.0169982910157	1078.015747070313	-603.4077148437501	-462.9659118652345	1176.526000976563	-687.8928833007814	-474.9475097656251	1148.4169921875	-717.6762695312501	-463.5102539062501	1141.735229492188	-661.6303710937501	-248.498519897461	858.230407714844	-927.9575805664065	-193.9775085449219	793.9508056640627	-921.0773925781252	-154.5958862304688	806.430114746094	-891.5018310546877	-202.1232299804688	734.6876220703126	-916.3264770507815	-163.7089080810547	642.4541625976564	-909.1176757812502	-146.3354644775391	634.2702026367189	-780.7774047851565	-61.77838516235353	537.7698974609376	-873.2800903320315	-92.82956695556642	487.0972595214845	-933.8712158203127	-54.05786514282228	492.513641357422	-909.2288818359377	-22.23265266418457	417.6153869628907	-888.4590454101565	-1.4845370054245	214.3348999023438	-913.883728027344	17.76679229736328	229.6505889892579	-824.042175292969	-49.02378463745119	159.6650695800782	-862.1069335937502	166.4461212158203	208.2576599121094	-847.6639404296877	170.4749908447266	216.270492553711	-894.735534667969	128.8913116455078	184.1050262451172	-948.246276855469	-372.6304626464844	866.1326904296877	-551.1177978515626	-335.3139648437501	811.6728515625002	-550.7325439453126	-301.9392395019532	811.820739746094	-551.1459960937501	-359.6412963867188	734.3385009765626	-574.9388427734376	-350.1674804687501	554.8046875000001	-606.5583496093751	-307.8604736328126	552.8128051757814	-736.9477539062501	-341.1813964843751	275.4557800292969	-647.6986694335939	-303.5584411621094	270.3234252929688	-677.4050292968751	-311.7952270507813	228.994857788086	-716.5743408203126	-374.3379516601563	117.8920364379883	-689.4114990234376	-340.7798461914063	146.3665466308594	-773.0893554687502	-438.0755920410157	103.6300048828125	-755.0887451171876	-228.8096923828126	60.91334915161134	-768.0601196289065	-221.880844116211	58.46262741088869	-716.1169433593751	-271.4187622070313	26.3248691558838	-664.7316284179689	-295.9434204101563	356.1232299804688	-703.4119873046876	269.4768676757813	1535.57080078125	-835.619812011719	
1097	5.48	-275.9942626953126	1817.396240234375	-610.5570678710939	-426.8504943847657	1757.41357421875	-688.4788818359376	-259.7734069824219	1824.760131835938	-752.0263061523439	-434.6151123046876	1600.563598632813	-698.6688232421876	-446.3530578613282	1296.977783203125	-688.2131347656251	-276.2095642089844	1557.829223632813	-683.4675903320314	-284.8507080078126	1608.83447265625	-838.5381469726565	-140.5528259277344	1528.103393554688	-959.4114990234377	-111.7067260742188	1564.989624023438	-939.6253051757815	-70.70079803466798	1527.56591796875	-961.4783935546877	7.388462066650392	1528.401733398438	-953.2906494140627	11.34768199920654	1471.413452148438	-921.3440551757815	276.7793579101563	1562.228271484375	-912.5454711914065	369.2033386230469	1558.102905273438	-830.3371582031252	-303.8658752441407	1606.461791992188	-528.5659179687501	-151.0303192138672	1512.175903320313	-417.0560302734376	-126.2410583496094	1550.568969726563	-438.2894592285157	-81.66251373291017	1519.1767578125	-415.9903869628907	-13.58548545837403	1509.210571289063	-420.5850830078126	-5.091403961181642	1453.117553710938	-473.1510620117189	253.5612792968751	1543.406616210938	-507.6417541503907	255.5153808593751	1554.819702148438	-426.1195068359376	349.0848999023438	1566.661865234375	-493.7533264160157	-282.5777893066407	1108.222412109375	-841.4656982421877	-264.0167236328126	1078.0595703125	-603.4124755859376	-462.9900207519532	1176.463012695313	-687.9015502929689	-474.8861389160157	1148.416870117188	-717.7402954101564	-463.3945617675782	1141.78955078125	-661.7301025390626	-248.4499969482422	858.195983886719	-927.9614868164065	-193.9522705078126	793.923278808594	-921.0927734375002	-154.5863647460938	806.4299926757815	-891.4815063476565	-202.0692291259766	734.6123657226564	-916.3485107421877	-163.7567596435547	642.4359130859376	-909.1655883789065	-146.3716583251953	634.2039184570314	-780.7346801757815	-61.75717163085939	537.7371826171876	-873.2749633789065	-92.78286743164064	487.138153076172	-933.8931274414065	-53.89704513549806	492.5245056152345	-909.2461547851565	-22.43177223205567	417.6121520996095	-888.6246337890627	-1.478002905845642	214.3370361328126	-913.921081542969	17.77783203125	229.6336822509766	-824.0283203125002	-48.98331832885744	159.6643829345703	-862.1264648437502	166.4725799560547	208.2491607666016	-847.6260986328127	170.5272521972657	216.3265533447266	-894.7423095703127	128.9966125488282	184.1539916992188	-948.2164306640627	-372.6697692871094	866.191345214844	-551.2043457031251	-335.3716125488282	811.6527099609377	-550.8535156250001	-301.9575500488282	811.8354492187502	-551.2554321289064	-359.6842346191407	734.3924560546876	-574.9688110351564	-350.3838500976563	554.8381347656251	-606.5855712890626	-308.0906677246094	552.8355102539064	-736.9635009765626	-341.3806762695313	275.4720153808594	-647.7055664062501	-303.6283569335938	270.4195861816407	-677.3361206054689	-311.7963562011719	228.993637084961	-716.5758056640626	-374.3537292480469	117.9140396118164	-689.4263305664064	-340.7487792968751	146.3698883056641	-773.1092529296877	-437.9697875976564	103.5531997680664	-755.1636962890626	-228.6348114013672	60.39319610595705	-768.0050048828127	-222.9559478759766	56.97456741333009	-715.8700561523439	-271.3992919921876	26.34407234191895	-664.7182617187501	-295.8299865722657	356.2052612304688	-703.2773437500001	269.4823608398438	1535.621459960938	-835.5589599609377	
1098	5.485	-276.0602416992188	1817.385864257813	-610.5401611328126	-426.890594482422	1757.366088867188	-688.4892578125001	-259.8884887695313	1824.757080078125	-752.0676879882814	-434.5754394531251	1600.57763671875	-698.6627197265626	-446.3592224121095	1296.934204101563	-688.3202514648439	-276.2937622070313	1557.821899414063	-683.4344482421876	-284.8974304199219	1608.871459960938	-838.3885498046877	-140.6307067871094	1528.18408203125	-959.4202270507815	-111.7710113525391	1565.011352539063	-939.5757446289065	-70.66516113281251	1527.611328125	-961.4550781250002	7.338546276092531	1528.474609375	-953.2490844726565	11.3153133392334	1471.490844726563	-921.4067993164065	276.7771301269532	1562.351684570313	-912.443298339844	369.1927795410157	1558.162963867188	-830.2475585937502	-303.9662475585938	1606.420532226563	-528.5958862304689	-151.0174255371094	1512.067138671875	-417.1170349121095	-126.3063125610352	1550.532958984375	-438.339813232422	-81.90251922607423	1518.93505859375	-415.9615478515626	-13.61942958831787	1509.114379882813	-420.6410522460939	-5.120409488677979	1453.0400390625	-473.2041625976564	253.5292968750001	1543.311889648438	-507.556365966797	255.4294891357422	1554.67822265625	-426.1108398437501	348.8389282226563	1566.336791992188	-493.852752685547	-282.5570373535157	1108.1982421875	-841.4586181640627	-264.0243530273438	1078.06884765625	-603.4147949218751	-462.939666748047	1176.547973632813	-688.0161132812501	-474.7655334472657	1148.397338867188	-717.8307495117189	-463.3845520019532	1141.75390625	-661.7744750976564	-248.3747711181641	858.1760253906252	-928.0281982421877	-193.9059753417969	793.8970336914065	-921.1031494140627	-154.5693359375	806.4101562500002	-891.483581542969	-202.0104217529297	734.5829467773439	-916.3906860351565	-163.7407836914063	642.4046020507814	-909.1391601562502	-146.2415466308594	634.1768188476564	-780.7071533203127	-61.71434402465822	537.6848144531251	-873.3067016601565	-92.80441284179689	487.1069335937501	-933.8467407226565	-53.76268005371095	492.3948669433595	-909.2833251953127	-22.15305709838868	417.5882263183595	-888.4743652343752	-1.430391073226929	214.3746643066407	-913.8394775390627	17.90276527404786	229.6038055419922	-824.049987792969	-48.98010253906251	159.6427612304688	-862.1044921875002	166.4793853759766	208.2112274169922	-847.5666503906252	170.5765228271485	216.2616882324219	-894.683776855469	129.0776672363282	184.1405181884766	-948.1890869140627	-372.6714782714844	866.1939697265627	-551.2623901367189	-335.4213562011719	811.6783447265627	-550.9537353515626	-301.9807128906251	811.8513793945315	-551.3219604492189	-359.7368469238282	734.4265747070314	-575.0219726562501	-350.6168518066407	554.8871459960939	-606.6181030273439	-308.2833862304688	552.8120727539064	-736.9978027343751	-341.4265747070313	275.4613952636719	-647.6846923828126	-303.6403808593751	270.4438781738282	-677.3412475585939	-312.0125122070313	228.9801788330079	-716.5440063476564	-374.3471984863282	117.8802871704102	-689.4201049804689	-340.8228149414063	146.3953552246094	-773.1047973632815	-437.9475402832032	103.5030517578125	-755.1846923828126	-228.7994384765626	60.93454742431642	-768.1203613281252	-221.9080505371094	58.45552062988283	-716.0902099609376	-271.3633422851563	26.31148338317872	-664.7048950195314	-295.9583435058594	356.1713562011719	-703.3116455078126	269.5277099609376	1535.694091796875	-835.5142211914065	
1099	5.49	-276.0987243652344	1817.382446289063	-610.5518188476564	-426.9238281250001	1757.35791015625	-688.4843750000001	-259.9306640625001	1824.840087890625	-751.9520263671876	-434.614715576172	1600.571533203125	-698.5993041992189	-446.3208618164064	1296.939697265625	-688.3820800781251	-276.3133239746094	1557.75244140625	-683.4342041015626	-284.8644714355469	1608.88037109375	-838.4832763671877	-140.6479949951172	1528.24365234375	-959.4082641601565	-111.7974166870117	1565.024658203125	-939.485534667969	-70.63374328613283	1527.652709960938	-961.4265136718752	7.269145011901857	1528.510620117188	-953.1485595703127	11.35067558288574	1471.466552734375	-921.2674560546877	276.7533264160157	1562.41552734375	-912.3740844726565	369.1438293457032	1558.1962890625	-830.0987548828127	-303.9907531738282	1606.317260742188	-528.5494384765626	-151.0769500732422	1511.982177734375	-417.0870361328126	-126.3788146972657	1550.414916992188	-438.370574951172	-82.01348876953126	1518.831909179688	-416.0039367675782	-13.71177577972412	1509.007568359375	-420.6355895996095	-5.229987144470216	1452.933227539063	-473.2041931152345	253.3903350830079	1543.243041992188	-507.5361938476564	255.4071807861329	1554.589233398438	-426.0422973632814	348.8844604492188	1566.307250976563	-493.8446044921876	-282.5339660644532	1108.207397460938	-841.482849121094	-264.0231018066407	1078.079467773438	-603.4104614257814	-462.935516357422	1176.52294921875	-688.0623779296876	-474.7134399414064	1148.401000976563	-717.8961181640626	-463.3299255371095	1141.766845703125	-661.8835449218751	-248.3334960937501	858.1478271484377	-928.0468750000002	-193.8784942626954	793.8618774414065	-921.152282714844	-154.5577392578125	806.4125976562502	-891.507507324219	-202.0084533691407	734.5479736328126	-916.387390136719	-163.6156311035157	642.4264526367189	-909.1480712890627	-146.1326904296875	634.1203613281251	-780.6905517578127	-61.64757919311525	537.7498168945314	-873.3000488281252	-92.75174713134767	487.1637573242189	-933.869812011719	-53.73286819458009	492.3753051757814	-909.2334594726565	-22.35483169555664	417.5801696777345	-888.5591430664065	-1.379408836364746	214.3258209228516	-913.8295898437502	17.9000473022461	229.6639556884766	-824.023864746094	-48.96213150024415	159.643783569336	-862.0603027343752	166.49951171875	208.1959533691407	-847.588073730469	170.6300048828125	216.151840209961	-894.673767089844	129.166015625	184.1791687011719	-948.232604980469	-372.6813354492188	866.2481689453127	-551.3106689453126	-335.4605407714844	811.5949707031252	-550.9303588867189	-301.9099731445313	811.9450683593752	-551.4187011718751	-359.8619384765626	734.4290161132814	-575.0076904296876	-350.7351684570313	555.0004272460939	-606.6707153320314	-308.2929077148438	552.8161621093751	-736.9666137695314	-341.4523010253907	275.4711303710938	-647.6811523437501	-303.6883544921876	270.4770202636719	-677.3056640625001	-312.0709228515626	229.0033721923829	-716.5028686523439	-374.3818969726563	117.9080810546875	-689.4324340820314	-340.7973937988282	146.389404296875	-773.099792480469	-437.9784545898439	103.4712982177735	-755.1527709960939	-228.7172088623047	60.52128219604494	-767.9714355468751	-222.9322509765626	56.9831886291504	-715.8701171875001	-271.3817138671876	26.31767845153809	-664.7209472656251	-295.9593505859376	356.1682739257813	-703.3146972656251	269.3943481445313	1535.761596679688	-835.4742431640627	
